<svg width="320" height="78" viewBox="0 0 320 78" fill="none" xmlns="http://www.w3.org/2000/svg">
<g clip-path="url(#clip0_11_12)">
<g clip-path="url(#clip1_11_12)">
<path d="M20.2373 69.1387C15.9511 69.1387 12.3722 68.5088 9.49808 67.2515C6.62393 65.9942 4.40719 64.0076 2.85047 61.2969C1.29113 58.5862 0.341847 55.0992 0 50.8385H10.7392V52.8722C10.7392 55.4391 11.4939 57.3995 13.0033 58.7535C14.5127 60.1102 16.924 60.7872 20.2347 60.7872C23.1562 60.7872 25.3966 60.3141 26.9559 59.3704C28.5153 58.4268 29.2936 57.0597 29.2936 55.2665V54.1033C29.2936 52.7964 28.8308 51.7325 27.9052 50.9091C26.9796 50.0857 25.4439 49.4322 23.3034 48.9486L13.2952 46.698C8.76442 45.5845 5.49058 43.9377 3.46843 41.7603C1.44627 39.5829 0.436512 36.5795 0.436512 32.7553C0.436512 27.8175 2.11682 24.0535 5.47743 21.4631C8.83805 18.8726 13.6844 17.5787 20.0164 17.5787C24.2527 17.5787 27.7974 18.2087 30.6452 19.466C33.4957 20.7259 35.6862 22.7099 37.2192 25.4206C38.7523 28.1338 39.7147 31.6182 40.1039 35.8789H29.3646V33.8453C29.3646 31.2784 28.6204 29.3179 27.1374 27.9639C25.6516 26.6099 23.2771 25.9303 20.0138 25.9303C17.1397 25.9303 14.9466 26.3903 13.4398 27.3104C11.9304 28.2305 11.1758 29.6107 11.1758 31.4509V32.6141C11.1758 33.9708 11.6254 35.0346 12.5274 35.8084C13.4293 36.5847 14.9255 37.2382 17.0213 37.7688L27.1032 40.0194C31.584 41.0859 34.8578 42.7066 36.93 44.884C38.9994 47.0614 40.0355 50.0883 40.0355 53.9622C40.0355 58.8999 38.342 62.6666 34.9578 65.2544C31.5708 67.8448 26.6667 69.1387 20.2373 69.1387Z" fill="#103E6F"/>
<path d="M83.5026 60.9336V68.4121H71.6695L61.8059 51.9259H57.6406V68.4121H47.1959V25.7839H43.1752V18.3028H57.6406V44.8108H61.8059L71.4512 29.6316H83.2844L71.2671 47.8403L79.4846 60.9336H83.5026Z" fill="#103E6F"/>
<path d="M89.7137 68.412V37.1127H85.5484V29.6316H100.161V68.412H89.7137ZM89.2035 26.8922V18.4675H100.456V26.8922H89.2035Z" fill="#66A9F0"/>
<path d="M109.146 68.412V25.9486H104.981V18.4675H119.594V68.412H109.146Z" fill="#5E81EB"/>
<path d="M128.653 68.4121V14.5152H124.487V7.03412H139.1V68.4121H128.653Z" fill="#80D9D3"/>
<path d="M160.434 69.1388C156.587 69.1388 153.652 67.9782 151.63 65.6518C149.608 63.328 148.598 59.9142 148.598 55.413V37.1128H144.58V29.6317H159.119V53.4525C159.119 56.1161 159.619 58.053 160.618 59.2633C161.615 60.4735 163.187 61.08 165.33 61.08C167.473 61.08 169.056 60.4762 170.079 59.2633C171.102 58.053 171.612 56.1161 171.612 53.4525V29.6317H182.06V60.931H186.151V68.4121H179.504C175.167 68.4121 173.001 66.2582 173.001 61.9478V60.6408H170.663C170.029 63.5449 168.872 65.6884 167.192 67.0685C165.512 68.4487 163.258 69.1388 160.434 69.1388Z" fill="#103E6F"/>
<path d="M193.162 78V37.1128H189.07V29.6317H202.221V37.4761H204.558C205.239 34.6687 206.483 32.5384 208.284 31.085C210.086 29.6317 212.376 28.9076 215.153 28.9076C218.074 28.9076 220.633 29.7075 222.823 31.3046C225.017 32.9017 226.721 35.202 227.938 38.2028C229.156 41.2062 229.766 44.8108 229.766 49.0245C229.766 53.2382 229.169 56.7827 227.975 59.8096C226.781 62.8365 225.09 65.1473 222.897 66.7444C220.707 68.3415 218.124 69.1414 215.153 69.1414C212.473 69.1414 210.307 68.4879 208.65 67.1809C206.993 65.874 205.849 63.9135 205.216 61.2996H202.878C203.12 63.5763 203.304 65.3799 203.425 66.7104C203.546 68.0435 203.606 69.191 203.606 70.1608V78.0053H193.159L193.162 78ZM211.135 61.0774C213.765 61.0774 215.689 60.3402 216.907 58.8634C218.124 57.3865 218.734 55.0496 218.734 51.8554V46.191C218.734 42.9967 218.124 40.6599 216.907 39.183C215.689 37.7061 213.765 36.969 211.135 36.969C208.505 36.969 206.654 37.7087 205.437 39.183C204.219 40.6599 203.609 42.9967 203.609 46.191V51.8554C203.609 55.0496 204.216 57.3865 205.437 58.8634C206.654 60.3402 208.553 61.0774 211.135 61.0774Z" fill="#103E6F"/>
</g>
<g clip-path="url(#clip2_11_12)">
<path d="M229.766 22.642V0H238.383L241.651 14.0133H242.74L246.009 0H254.657V22.642H249.806V4.00456H248.717L244.326 22.6446H239.934L235.543 4.00456H234.454V22.6446H229.766V22.642Z" fill="#103E6F"/>
<path d="M271.295 6.79363V3.51314H264.297V9.48599H271.923V12.7011H264.297V19.134H271.429V15.7202H275.457V22.6446H259.446V3.51052H257.4V0H275.326V6.79363H271.297H271.295Z" fill="#103E6F"/>
<path d="M279.449 22.642V3.51052H277.369V0H285.258L291.795 12.4371H292.884C292.773 11.4099 292.692 10.5891 292.636 9.9748C292.581 9.36314 292.555 8.80375 292.555 8.30188V0H297.275V22.642H292.721L284.898 7.12038H283.84C283.951 8.14766 284.032 8.96843 284.088 9.58271C284.143 10.1944 284.169 10.7538 284.169 11.2556V22.642H279.449Z" fill="#103E6F"/>
<path d="M314.441 0H302.755V3.51052H304.838L300.181 22.642H304.967L306.158 17.6206H313.71L314.901 22.642H319.953L314.441 0ZM306.955 14.2747L309.392 4.00456H310.481L312.919 14.2747H306.955Z" fill="#103E6F"/>
</g>
</g>
<defs>
<clipPath id="clip0_11_12">
<rect width="320" height="78" fill="white"/>
</clipPath>
<clipPath id="clip1_11_12">
<rect width="229.766" height="70.9711" fill="white" transform="translate(0 7.03412)"/>
</clipPath>
<clipPath id="clip2_11_12">
<rect width="90.187" height="22.6446" fill="white" transform="translate(229.766)"/>
</clipPath>
</defs>
</svg>
